<svg width="19" height="19" viewBox="0 0 19 19" fill="none" xmlns="http://www.w3.org/2000/svg">
<path d="M0.430298 16.379C-0.139556 16.9488 -0.151186 17.9606 0.441928 18.5537C1.04667 19.1468 2.05845 19.1352 2.61668 18.577L9.50145 11.6922L16.3746 18.5653C16.9561 19.1468 17.9562 19.1468 18.5494 18.5537C19.1425 17.949 19.1425 16.9604 18.561 16.379L11.6878 9.50581L18.561 2.62105C19.1425 2.03956 19.1541 1.03941 18.5494 0.4463C17.9562 -0.146814 16.9561 -0.146814 16.3746 0.43467L9.50145 7.30781L2.61668 0.43467C2.05845 -0.135184 1.03504 -0.158444 0.441928 0.4463C-0.151186 1.03941 -0.139556 2.06282 0.430298 2.62105L7.30344 9.50581L0.430298 16.379Z" fill="black"/>
</svg>
